<?xml version="1.0" encoding="UTF-8" standalone="no"?>
<!DOCTYPE svg PUBLIC "-//W3C//DTD SVG 1.1//EN"
 "http://www.w3.org/Graphics/SVG/1.1/DTD/svg11.dtd">
<!-- Generated by graphviz version 10.0.1 (0)
 -->
<!-- Title: summer_simple Pages: 1 -->
<svg width="2165pt" height="177pt"
 viewBox="0.00 0.00 2164.50 176.75" xmlns="http://www.w3.org/2000/svg" xmlns:xlink="http://www.w3.org/1999/xlink">
<g id="graph0" class="graph" transform="scale(1 1) rotate(0) translate(4 172.75)">
<title>summer_simple</title>
<polygon fill="white" stroke="none" points="-4,4 -4,-172.75 2160.5,-172.75 2160.5,4 -4,4"/>
<text text-anchor="middle" x="1078.25" y="-151.45" font-family="Iosevka Slab" font-size="14.00">scene from image: summer_simple</text>
<!-- sun -->
<g id="node1" class="node">
<title>sun</title>
<polygon fill="black" stroke="none" points="1,-113 1,-141 155,-141 155,-113 1,-113"/>
<polygon fill="none" stroke="black" points="1,-113 1,-141 155,-141 155,-113 1,-113"/>
<text text-anchor="start" x="6" y="-123.7" font-family="Iosevka Slab" font-weight="bold" font-size="14.00" fill="white">sun</text>
<polygon fill="none" stroke="black" points="1,-85 1,-113 85,-113 85,-85 1,-85"/>
<text text-anchor="start" x="6" y="-94.7" font-family="Iosevka Slab" font-size="14.00" fill="#7638c5">color</text>
<polygon fill="none" stroke="black" points="85,-85 85,-113 155,-113 155,-85 85,-85"/>
<text text-anchor="start" x="90" y="-94.7" font-family="Iosevka Slab" font-size="14.00" fill="#393552">yellow</text>
<polygon fill="none" stroke="black" points="1,-57 1,-85 85,-85 85,-57 1,-57"/>
<text text-anchor="start" x="5.88" y="-66.7" font-family="Iosevka Slab" font-size="14.00" fill="#7638c5">bbox center</text>
<polygon fill="none" stroke="black" points="85,-57 85,-85 155,-85 155,-57 85,-57"/>
<text text-anchor="start" x="89.62" y="-66.7" font-family="Iosevka Slab" font-size="14.00" fill="#393552">[290, 95]</text>
<polygon fill="none" stroke="black" points="1,-29 1,-57 85,-57 85,-29 1,-29"/>
<text text-anchor="start" x="6" y="-38.7" font-family="Iosevka Slab" font-size="14.00" fill="#7638c5">bbox width</text>
<polygon fill="none" stroke="black" points="85,-29 85,-57 155,-57 155,-29 85,-29"/>
<text text-anchor="start" x="90" y="-38.7" font-family="Iosevka Slab" font-size="14.00" fill="#393552">245</text>
<polygon fill="none" stroke="black" points="1,-1 1,-29 85,-29 85,-1 1,-1"/>
<text text-anchor="start" x="5.88" y="-10.7" font-family="Iosevka Slab" font-size="14.00" fill="#7638c5">bbox height</text>
<polygon fill="none" stroke="black" points="85,-1 85,-29 155,-29 155,-1 85,-1"/>
<text text-anchor="start" x="90" y="-10.7" font-family="Iosevka Slab" font-size="14.00" fill="#393552">145</text>
<polygon fill="none" stroke="black" points="0,0 0,-142 156,-142 156,0 0,0"/>
</g>
<!-- cloud -->
<g id="node2" class="node">
<title>cloud</title>
<polygon fill="black" stroke="none" points="175.5,-113 175.5,-141 336.5,-141 336.5,-113 175.5,-113"/>
<polygon fill="none" stroke="black" points="175.5,-113 175.5,-141 336.5,-141 336.5,-113 175.5,-113"/>
<text text-anchor="start" x="180.5" y="-123.7" font-family="Iosevka Slab" font-weight="bold" font-size="14.00" fill="white">cloud</text>
<polygon fill="none" stroke="black" points="175.5,-85 175.5,-113 259.5,-113 259.5,-85 175.5,-85"/>
<text text-anchor="start" x="180.5" y="-94.7" font-family="Iosevka Slab" font-size="14.00" fill="#7638c5">color</text>
<polygon fill="none" stroke="black" points="259.5,-85 259.5,-113 336.5,-113 336.5,-85 259.5,-85"/>
<text text-anchor="start" x="264.5" y="-94.7" font-family="Iosevka Slab" font-size="14.00" fill="#393552">white</text>
<polygon fill="none" stroke="black" points="175.5,-57 175.5,-85 259.5,-85 259.5,-57 175.5,-57"/>
<text text-anchor="start" x="180.38" y="-66.7" font-family="Iosevka Slab" font-size="14.00" fill="#7638c5">bbox center</text>
<polygon fill="none" stroke="black" points="259.5,-57 259.5,-85 336.5,-85 336.5,-57 259.5,-57"/>
<text text-anchor="start" x="264.25" y="-66.7" font-family="Iosevka Slab" font-size="14.00" fill="#393552">[318, 133]</text>
<polygon fill="none" stroke="black" points="175.5,-29 175.5,-57 259.5,-57 259.5,-29 175.5,-29"/>
<text text-anchor="start" x="180.5" y="-38.7" font-family="Iosevka Slab" font-size="14.00" fill="#7638c5">bbox width</text>
<polygon fill="none" stroke="black" points="259.5,-29 259.5,-57 336.5,-57 336.5,-29 259.5,-29"/>
<text text-anchor="start" x="264.5" y="-38.7" font-family="Iosevka Slab" font-size="14.00" fill="#393552">564</text>
<polygon fill="none" stroke="black" points="175.5,-1 175.5,-29 259.5,-29 259.5,-1 175.5,-1"/>
<text text-anchor="start" x="180.38" y="-10.7" font-family="Iosevka Slab" font-size="14.00" fill="#7638c5">bbox height</text>
<polygon fill="none" stroke="black" points="259.5,-1 259.5,-29 336.5,-29 336.5,-1 259.5,-1"/>
<text text-anchor="start" x="264.5" y="-10.7" font-family="Iosevka Slab" font-size="14.00" fill="#393552">87</text>
<polygon fill="none" stroke="black" points="174.5,0 174.5,-142 337.5,-142 337.5,0 174.5,0"/>
</g>
<!-- dog -->
<g id="node3" class="node">
<title>dog</title>
<polygon fill="black" stroke="none" points="356.5,-113 356.5,-141 517.5,-141 517.5,-113 356.5,-113"/>
<polygon fill="none" stroke="black" points="356.5,-113 356.5,-141 517.5,-141 517.5,-113 356.5,-113"/>
<text text-anchor="start" x="361.5" y="-123.7" font-family="Iosevka Slab" font-weight="bold" font-size="14.00" fill="white">dog</text>
<polygon fill="none" stroke="black" points="356.5,-85 356.5,-113 440.5,-113 440.5,-85 356.5,-85"/>
<text text-anchor="start" x="361.5" y="-94.7" font-family="Iosevka Slab" font-size="14.00" fill="#7638c5">color</text>
<polygon fill="none" stroke="black" points="440.5,-85 440.5,-113 517.5,-113 517.5,-85 440.5,-85"/>
<text text-anchor="start" x="445.5" y="-94.7" font-family="Iosevka Slab" font-size="14.00" fill="#393552">brown</text>
<polygon fill="none" stroke="black" points="356.5,-57 356.5,-85 440.5,-85 440.5,-57 356.5,-57"/>
<text text-anchor="start" x="361.38" y="-66.7" font-family="Iosevka Slab" font-size="14.00" fill="#7638c5">bbox center</text>
<polygon fill="none" stroke="black" points="440.5,-57 440.5,-85 517.5,-85 517.5,-57 440.5,-57"/>
<text text-anchor="start" x="445.25" y="-66.7" font-family="Iosevka Slab" font-size="14.00" fill="#393552">[855, 446]</text>
<polygon fill="none" stroke="black" points="356.5,-29 356.5,-57 440.5,-57 440.5,-29 356.5,-29"/>
<text text-anchor="start" x="361.5" y="-38.7" font-family="Iosevka Slab" font-size="14.00" fill="#7638c5">bbox width</text>
<polygon fill="none" stroke="black" points="440.5,-29 440.5,-57 517.5,-57 517.5,-29 440.5,-29"/>
<text text-anchor="start" x="445.5" y="-38.7" font-family="Iosevka Slab" font-size="14.00" fill="#393552">288</text>
<polygon fill="none" stroke="black" points="356.5,-1 356.5,-29 440.5,-29 440.5,-1 356.5,-1"/>
<text text-anchor="start" x="361.38" y="-10.7" font-family="Iosevka Slab" font-size="14.00" fill="#7638c5">bbox height</text>
<polygon fill="none" stroke="black" points="440.5,-1 440.5,-29 517.5,-29 517.5,-1 440.5,-1"/>
<text text-anchor="start" x="445.5" y="-10.7" font-family="Iosevka Slab" font-size="14.00" fill="#393552">135</text>
<polygon fill="none" stroke="black" points="355.5,0 355.5,-142 518.5,-142 518.5,0 355.5,0"/>
</g>
<!-- squirrel -->
<g id="node4" class="node">
<title>squirrel</title>
<polygon fill="black" stroke="none" points="538,-113 538,-141 706,-141 706,-113 538,-113"/>
<polygon fill="none" stroke="black" points="538,-113 538,-141 706,-141 706,-113 538,-113"/>
<text text-anchor="start" x="543" y="-123.7" font-family="Iosevka Slab" font-weight="bold" font-size="14.00" fill="white">squirrel</text>
<polygon fill="none" stroke="black" points="538,-85 538,-113 622,-113 622,-85 538,-85"/>
<text text-anchor="start" x="543" y="-94.7" font-family="Iosevka Slab" font-size="14.00" fill="#7638c5">color</text>
<polygon fill="none" stroke="black" points="622,-85 622,-113 706,-113 706,-85 622,-85"/>
<text text-anchor="start" x="627" y="-94.7" font-family="Iosevka Slab" font-size="14.00" fill="#393552">orange</text>
<polygon fill="none" stroke="black" points="538,-57 538,-85 622,-85 622,-57 538,-57"/>
<text text-anchor="start" x="542.88" y="-66.7" font-family="Iosevka Slab" font-size="14.00" fill="#7638c5">bbox center</text>
<polygon fill="none" stroke="black" points="622,-57 622,-85 706,-85 706,-57 622,-57"/>
<text text-anchor="start" x="626.88" y="-66.7" font-family="Iosevka Slab" font-size="14.00" fill="#393552">[1078, 377]</text>
<polygon fill="none" stroke="black" points="538,-29 538,-57 622,-57 622,-29 538,-29"/>
<text text-anchor="start" x="543" y="-38.7" font-family="Iosevka Slab" font-size="14.00" fill="#7638c5">bbox width</text>
<polygon fill="none" stroke="black" points="622,-29 622,-57 706,-57 706,-29 622,-29"/>
<text text-anchor="start" x="627" y="-38.7" font-family="Iosevka Slab" font-size="14.00" fill="#393552">145</text>
<polygon fill="none" stroke="black" points="538,-1 538,-29 622,-29 622,-1 538,-1"/>
<text text-anchor="start" x="542.88" y="-10.7" font-family="Iosevka Slab" font-size="14.00" fill="#7638c5">bbox height</text>
<polygon fill="none" stroke="black" points="622,-1 622,-29 706,-29 706,-1 622,-1"/>
<text text-anchor="start" x="627" y="-10.7" font-family="Iosevka Slab" font-size="14.00" fill="#393552">93</text>
<polygon fill="none" stroke="black" points="537,0 537,-142 707,-142 707,0 537,0"/>
</g>
<!-- tree #2 -->
<g id="node5" class="node">
<title>tree #2</title>
<polygon fill="black" stroke="none" points="726,-113 726,-141 894,-141 894,-113 726,-113"/>
<polygon fill="none" stroke="black" points="726,-113 726,-141 894,-141 894,-113 726,-113"/>
<text text-anchor="start" x="731" y="-123.7" font-family="Iosevka Slab" font-weight="bold" font-size="14.00" fill="white">tree #2</text>
<polygon fill="none" stroke="black" points="726,-85 726,-113 810,-113 810,-85 726,-85"/>
<text text-anchor="start" x="731" y="-94.7" font-family="Iosevka Slab" font-size="14.00" fill="#7638c5">color</text>
<polygon fill="none" stroke="black" points="810,-85 810,-113 894,-113 894,-85 810,-85"/>
<text text-anchor="start" x="815" y="-94.7" font-family="Iosevka Slab" font-size="14.00" fill="#393552">green</text>
<polygon fill="none" stroke="black" points="726,-57 726,-85 810,-85 810,-57 726,-57"/>
<text text-anchor="start" x="730.88" y="-66.7" font-family="Iosevka Slab" font-size="14.00" fill="#7638c5">bbox center</text>
<polygon fill="none" stroke="black" points="810,-57 810,-85 894,-85 894,-57 810,-57"/>
<text text-anchor="start" x="814.88" y="-66.7" font-family="Iosevka Slab" font-size="14.00" fill="#393552">[1149, 263]</text>
<polygon fill="none" stroke="black" points="726,-29 726,-57 810,-57 810,-29 726,-29"/>
<text text-anchor="start" x="731" y="-38.7" font-family="Iosevka Slab" font-size="14.00" fill="#7638c5">bbox width</text>
<polygon fill="none" stroke="black" points="810,-29 810,-57 894,-57 894,-29 810,-29"/>
<text text-anchor="start" x="815" y="-38.7" font-family="Iosevka Slab" font-size="14.00" fill="#393552">489</text>
<polygon fill="none" stroke="black" points="726,-1 726,-29 810,-29 810,-1 726,-1"/>
<text text-anchor="start" x="730.88" y="-10.7" font-family="Iosevka Slab" font-size="14.00" fill="#7638c5">bbox height</text>
<polygon fill="none" stroke="black" points="810,-1 810,-29 894,-29 894,-1 810,-1"/>
<text text-anchor="start" x="815" y="-10.7" font-family="Iosevka Slab" font-size="14.00" fill="#393552">517</text>
<polygon fill="none" stroke="black" points="725,0 725,-142 895,-142 895,0 725,0"/>
</g>
<!-- bird -->
<g id="node6" class="node">
<title>bird</title>
<polygon fill="black" stroke="none" points="914.5,-113 914.5,-141 1075.5,-141 1075.5,-113 914.5,-113"/>
<polygon fill="none" stroke="black" points="914.5,-113 914.5,-141 1075.5,-141 1075.5,-113 914.5,-113"/>
<text text-anchor="start" x="919.5" y="-123.7" font-family="Iosevka Slab" font-weight="bold" font-size="14.00" fill="white">bird</text>
<polygon fill="none" stroke="black" points="914.5,-85 914.5,-113 998.5,-113 998.5,-85 914.5,-85"/>
<text text-anchor="start" x="919.5" y="-94.7" font-family="Iosevka Slab" font-size="14.00" fill="#7638c5">color</text>
<polygon fill="none" stroke="black" points="998.5,-85 998.5,-113 1075.5,-113 1075.5,-85 998.5,-85"/>
<text text-anchor="start" x="1003.5" y="-94.7" font-family="Iosevka Slab" font-size="14.00" fill="#393552">white</text>
<polygon fill="none" stroke="black" points="914.5,-57 914.5,-85 998.5,-85 998.5,-57 914.5,-57"/>
<text text-anchor="start" x="919.38" y="-66.7" font-family="Iosevka Slab" font-size="14.00" fill="#7638c5">bbox center</text>
<polygon fill="none" stroke="black" points="998.5,-57 998.5,-85 1075.5,-85 1075.5,-57 998.5,-57"/>
<text text-anchor="start" x="1003.25" y="-66.7" font-family="Iosevka Slab" font-size="14.00" fill="#393552">[405, 254]</text>
<polygon fill="none" stroke="black" points="914.5,-29 914.5,-57 998.5,-57 998.5,-29 914.5,-29"/>
<text text-anchor="start" x="919.5" y="-38.7" font-family="Iosevka Slab" font-size="14.00" fill="#7638c5">bbox width</text>
<polygon fill="none" stroke="black" points="998.5,-29 998.5,-57 1075.5,-57 1075.5,-29 998.5,-29"/>
<text text-anchor="start" x="1003.5" y="-38.7" font-family="Iosevka Slab" font-size="14.00" fill="#393552">112</text>
<polygon fill="none" stroke="black" points="914.5,-1 914.5,-29 998.5,-29 998.5,-1 914.5,-1"/>
<text text-anchor="start" x="919.38" y="-10.7" font-family="Iosevka Slab" font-size="14.00" fill="#7638c5">bbox height</text>
<polygon fill="none" stroke="black" points="998.5,-1 998.5,-29 1075.5,-29 1075.5,-1 998.5,-1"/>
<text text-anchor="start" x="1003.5" y="-10.7" font-family="Iosevka Slab" font-size="14.00" fill="#393552">59</text>
<polygon fill="none" stroke="black" points="913.5,0 913.5,-142 1076.5,-142 1076.5,0 913.5,0"/>
</g>
<!-- branch -->
<g id="node7" class="node">
<title>branch</title>
<polygon fill="black" stroke="none" points="1095.5,-99 1095.5,-127 1256.5,-127 1256.5,-99 1095.5,-99"/>
<polygon fill="none" stroke="black" points="1095.5,-99 1095.5,-127 1256.5,-127 1256.5,-99 1095.5,-99"/>
<text text-anchor="start" x="1100.5" y="-109.7" font-family="Iosevka Slab" font-weight="bold" font-size="14.00" fill="white">branch</text>
<polygon fill="none" stroke="black" points="1095.5,-71 1095.5,-99 1179.5,-99 1179.5,-71 1095.5,-71"/>
<text text-anchor="start" x="1100.38" y="-80.7" font-family="Iosevka Slab" font-size="14.00" fill="#7638c5">bbox center</text>
<polygon fill="none" stroke="black" points="1179.5,-71 1179.5,-99 1256.5,-99 1256.5,-71 1179.5,-71"/>
<text text-anchor="start" x="1184.25" y="-80.7" font-family="Iosevka Slab" font-size="14.00" fill="#393552">[461, 289]</text>
<polygon fill="none" stroke="black" points="1095.5,-43 1095.5,-71 1179.5,-71 1179.5,-43 1095.5,-43"/>
<text text-anchor="start" x="1100.5" y="-52.7" font-family="Iosevka Slab" font-size="14.00" fill="#7638c5">bbox width</text>
<polygon fill="none" stroke="black" points="1179.5,-43 1179.5,-71 1256.5,-71 1256.5,-43 1179.5,-43"/>
<text text-anchor="start" x="1184.5" y="-52.7" font-family="Iosevka Slab" font-size="14.00" fill="#393552">138</text>
<polygon fill="none" stroke="black" points="1095.5,-15 1095.5,-43 1179.5,-43 1179.5,-15 1095.5,-15"/>
<text text-anchor="start" x="1100.38" y="-24.7" font-family="Iosevka Slab" font-size="14.00" fill="#7638c5">bbox height</text>
<polygon fill="none" stroke="black" points="1179.5,-15 1179.5,-43 1256.5,-43 1256.5,-15 1179.5,-15"/>
<text text-anchor="start" x="1184.5" y="-24.7" font-family="Iosevka Slab" font-size="14.00" fill="#393552">32</text>
<polygon fill="none" stroke="black" points="1094.5,-14 1094.5,-128 1257.5,-128 1257.5,-14 1094.5,-14"/>
</g>
<!-- tree #1 -->
<g id="node8" class="node">
<title>tree #1</title>
<polygon fill="black" stroke="none" points="1276.5,-113 1276.5,-141 1437.5,-141 1437.5,-113 1276.5,-113"/>
<polygon fill="none" stroke="black" points="1276.5,-113 1276.5,-141 1437.5,-141 1437.5,-113 1276.5,-113"/>
<text text-anchor="start" x="1281.5" y="-123.7" font-family="Iosevka Slab" font-weight="bold" font-size="14.00" fill="white">tree #1</text>
<polygon fill="none" stroke="black" points="1276.5,-85 1276.5,-113 1360.5,-113 1360.5,-85 1276.5,-85"/>
<text text-anchor="start" x="1281.5" y="-94.7" font-family="Iosevka Slab" font-size="14.00" fill="#7638c5">color</text>
<polygon fill="none" stroke="black" points="1360.5,-85 1360.5,-113 1437.5,-113 1437.5,-85 1360.5,-85"/>
<text text-anchor="start" x="1365.5" y="-94.7" font-family="Iosevka Slab" font-size="14.00" fill="#393552">green</text>
<polygon fill="none" stroke="black" points="1276.5,-57 1276.5,-85 1360.5,-85 1360.5,-57 1276.5,-57"/>
<text text-anchor="start" x="1281.38" y="-66.7" font-family="Iosevka Slab" font-size="14.00" fill="#7638c5">bbox center</text>
<polygon fill="none" stroke="black" points="1360.5,-57 1360.5,-85 1437.5,-85 1437.5,-57 1360.5,-57"/>
<text text-anchor="start" x="1365.25" y="-66.7" font-family="Iosevka Slab" font-size="14.00" fill="#393552">[623, 302]</text>
<polygon fill="none" stroke="black" points="1276.5,-29 1276.5,-57 1360.5,-57 1360.5,-29 1276.5,-29"/>
<text text-anchor="start" x="1281.5" y="-38.7" font-family="Iosevka Slab" font-size="14.00" fill="#7638c5">bbox width</text>
<polygon fill="none" stroke="black" points="1360.5,-29 1360.5,-57 1437.5,-57 1437.5,-29 1360.5,-29"/>
<text text-anchor="start" x="1365.5" y="-38.7" font-family="Iosevka Slab" font-size="14.00" fill="#393552">319</text>
<polygon fill="none" stroke="black" points="1276.5,-1 1276.5,-29 1360.5,-29 1360.5,-1 1276.5,-1"/>
<text text-anchor="start" x="1281.38" y="-10.7" font-family="Iosevka Slab" font-size="14.00" fill="#7638c5">bbox height</text>
<polygon fill="none" stroke="black" points="1360.5,-1 1360.5,-29 1437.5,-29 1437.5,-1 1360.5,-1"/>
<text text-anchor="start" x="1365.5" y="-10.7" font-family="Iosevka Slab" font-size="14.00" fill="#393552">266</text>
<polygon fill="none" stroke="black" points="1275.5,0 1275.5,-142 1438.5,-142 1438.5,0 1275.5,0"/>
</g>
<!-- plane -->
<g id="node9" class="node">
<title>plane</title>
<polygon fill="black" stroke="none" points="1458,-113 1458,-141 1612,-141 1612,-113 1458,-113"/>
<polygon fill="none" stroke="black" points="1458,-113 1458,-141 1612,-141 1612,-113 1458,-113"/>
<text text-anchor="start" x="1463" y="-123.7" font-family="Iosevka Slab" font-weight="bold" font-size="14.00" fill="white">plane</text>
<polygon fill="none" stroke="black" points="1458,-85 1458,-113 1542,-113 1542,-85 1458,-85"/>
<text text-anchor="start" x="1463" y="-94.7" font-family="Iosevka Slab" font-size="14.00" fill="#7638c5">color</text>
<polygon fill="none" stroke="black" points="1542,-85 1542,-113 1612,-113 1612,-85 1542,-85"/>
<text text-anchor="start" x="1547" y="-94.7" font-family="Iosevka Slab" font-size="14.00" fill="#393552">white</text>
<polygon fill="none" stroke="black" points="1458,-57 1458,-85 1542,-85 1542,-57 1458,-57"/>
<text text-anchor="start" x="1462.88" y="-66.7" font-family="Iosevka Slab" font-size="14.00" fill="#7638c5">bbox center</text>
<polygon fill="none" stroke="black" points="1542,-57 1542,-85 1612,-85 1612,-57 1542,-57"/>
<text text-anchor="start" x="1546.62" y="-66.7" font-family="Iosevka Slab" font-size="14.00" fill="#393552">[791, 92]</text>
<polygon fill="none" stroke="black" points="1458,-29 1458,-57 1542,-57 1542,-29 1458,-29"/>
<text text-anchor="start" x="1463" y="-38.7" font-family="Iosevka Slab" font-size="14.00" fill="#7638c5">bbox width</text>
<polygon fill="none" stroke="black" points="1542,-29 1542,-57 1612,-57 1612,-29 1542,-29"/>
<text text-anchor="start" x="1547" y="-38.7" font-family="Iosevka Slab" font-size="14.00" fill="#393552">147</text>
<polygon fill="none" stroke="black" points="1458,-1 1458,-29 1542,-29 1542,-1 1458,-1"/>
<text text-anchor="start" x="1462.88" y="-10.7" font-family="Iosevka Slab" font-size="14.00" fill="#7638c5">bbox height</text>
<polygon fill="none" stroke="black" points="1542,-1 1542,-29 1612,-29 1612,-1 1542,-1"/>
<text text-anchor="start" x="1547" y="-10.7" font-family="Iosevka Slab" font-size="14.00" fill="#393552">47</text>
<polygon fill="none" stroke="black" points="1457,0 1457,-142 1613,-142 1613,0 1457,0"/>
</g>
<!-- sky -->
<g id="node10" class="node">
<title>sky</title>
<polygon fill="black" stroke="none" points="1632.5,-113 1632.5,-141 1793.5,-141 1793.5,-113 1632.5,-113"/>
<polygon fill="none" stroke="black" points="1632.5,-113 1632.5,-141 1793.5,-141 1793.5,-113 1632.5,-113"/>
<text text-anchor="start" x="1637.5" y="-123.7" font-family="Iosevka Slab" font-weight="bold" font-size="14.00" fill="white">sky</text>
<polygon fill="none" stroke="black" points="1632.5,-85 1632.5,-113 1716.5,-113 1716.5,-85 1632.5,-85"/>
<text text-anchor="start" x="1637.5" y="-94.7" font-family="Iosevka Slab" font-size="14.00" fill="#7638c5">color</text>
<polygon fill="none" stroke="black" points="1716.5,-85 1716.5,-113 1793.5,-113 1793.5,-85 1716.5,-85"/>
<text text-anchor="start" x="1721.5" y="-94.7" font-family="Iosevka Slab" font-size="14.00" fill="#393552">blue</text>
<polygon fill="none" stroke="black" points="1632.5,-57 1632.5,-85 1716.5,-85 1716.5,-57 1632.5,-57"/>
<text text-anchor="start" x="1637.38" y="-66.7" font-family="Iosevka Slab" font-size="14.00" fill="#7638c5">bbox center</text>
<polygon fill="none" stroke="black" points="1716.5,-57 1716.5,-85 1793.5,-85 1793.5,-57 1716.5,-57"/>
<text text-anchor="start" x="1721.25" y="-66.7" font-family="Iosevka Slab" font-size="14.00" fill="#393552">[706, 209]</text>
<polygon fill="none" stroke="black" points="1632.5,-29 1632.5,-57 1716.5,-57 1716.5,-29 1632.5,-29"/>
<text text-anchor="start" x="1637.5" y="-38.7" font-family="Iosevka Slab" font-size="14.00" fill="#7638c5">bbox width</text>
<polygon fill="none" stroke="black" points="1716.5,-29 1716.5,-57 1793.5,-57 1793.5,-29 1716.5,-29"/>
<text text-anchor="start" x="1721.5" y="-38.7" font-family="Iosevka Slab" font-size="14.00" fill="#393552">1413</text>
<polygon fill="none" stroke="black" points="1632.5,-1 1632.5,-29 1716.5,-29 1716.5,-1 1632.5,-1"/>
<text text-anchor="start" x="1637.38" y="-10.7" font-family="Iosevka Slab" font-size="14.00" fill="#7638c5">bbox height</text>
<polygon fill="none" stroke="black" points="1716.5,-1 1716.5,-29 1793.5,-29 1793.5,-1 1716.5,-1"/>
<text text-anchor="start" x="1721.5" y="-10.7" font-family="Iosevka Slab" font-size="14.00" fill="#393552">419</text>
<polygon fill="none" stroke="black" points="1631.5,0 1631.5,-142 1794.5,-142 1794.5,0 1631.5,0"/>
</g>
<!-- ground -->
<g id="node11" class="node">
<title>ground</title>
<polygon fill="black" stroke="none" points="1813.5,-113 1813.5,-141 1974.5,-141 1974.5,-113 1813.5,-113"/>
<polygon fill="none" stroke="black" points="1813.5,-113 1813.5,-141 1974.5,-141 1974.5,-113 1813.5,-113"/>
<text text-anchor="start" x="1818.5" y="-123.7" font-family="Iosevka Slab" font-weight="bold" font-size="14.00" fill="white">ground</text>
<polygon fill="none" stroke="black" points="1813.5,-85 1813.5,-113 1897.5,-113 1897.5,-85 1813.5,-85"/>
<text text-anchor="start" x="1818.5" y="-94.7" font-family="Iosevka Slab" font-size="14.00" fill="#7638c5">color</text>
<polygon fill="none" stroke="black" points="1897.5,-85 1897.5,-113 1974.5,-113 1974.5,-85 1897.5,-85"/>
<text text-anchor="start" x="1902.5" y="-94.7" font-family="Iosevka Slab" font-size="14.00" fill="#393552">green</text>
<polygon fill="none" stroke="black" points="1813.5,-57 1813.5,-85 1897.5,-85 1897.5,-57 1813.5,-57"/>
<text text-anchor="start" x="1818.38" y="-66.7" font-family="Iosevka Slab" font-size="14.00" fill="#7638c5">bbox center</text>
<polygon fill="none" stroke="black" points="1897.5,-57 1897.5,-85 1974.5,-85 1974.5,-57 1897.5,-57"/>
<text text-anchor="start" x="1902.25" y="-66.7" font-family="Iosevka Slab" font-size="14.00" fill="#393552">[706, 474]</text>
<polygon fill="none" stroke="black" points="1813.5,-29 1813.5,-57 1897.5,-57 1897.5,-29 1813.5,-29"/>
<text text-anchor="start" x="1818.5" y="-38.7" font-family="Iosevka Slab" font-size="14.00" fill="#7638c5">bbox width</text>
<polygon fill="none" stroke="black" points="1897.5,-29 1897.5,-57 1974.5,-57 1974.5,-29 1897.5,-29"/>
<text text-anchor="start" x="1902.5" y="-38.7" font-family="Iosevka Slab" font-size="14.00" fill="#393552">1413</text>
<polygon fill="none" stroke="black" points="1813.5,-1 1813.5,-29 1897.5,-29 1897.5,-1 1813.5,-1"/>
<text text-anchor="start" x="1818.38" y="-10.7" font-family="Iosevka Slab" font-size="14.00" fill="#7638c5">bbox height</text>
<polygon fill="none" stroke="black" points="1897.5,-1 1897.5,-29 1974.5,-29 1974.5,-1 1897.5,-1"/>
<text text-anchor="start" x="1902.5" y="-10.7" font-family="Iosevka Slab" font-size="14.00" fill="#393552">113</text>
<polygon fill="none" stroke="black" points="1812.5,0 1812.5,-142 1975.5,-142 1975.5,0 1812.5,0"/>
</g>
<!-- leash -->
<g id="node12" class="node">
<title>leash</title>
<polygon fill="black" stroke="none" points="1994.5,-113 1994.5,-141 2155.5,-141 2155.5,-113 1994.5,-113"/>
<polygon fill="none" stroke="black" points="1994.5,-113 1994.5,-141 2155.5,-141 2155.5,-113 1994.5,-113"/>
<text text-anchor="start" x="1999.5" y="-123.7" font-family="Iosevka Slab" font-weight="bold" font-size="14.00" fill="white">leash</text>
<polygon fill="none" stroke="black" points="1994.5,-85 1994.5,-113 2078.5,-113 2078.5,-85 1994.5,-85"/>
<text text-anchor="start" x="1999.5" y="-94.7" font-family="Iosevka Slab" font-size="14.00" fill="#7638c5">color</text>
<polygon fill="none" stroke="black" points="2078.5,-85 2078.5,-113 2155.5,-113 2155.5,-85 2078.5,-85"/>
<text text-anchor="start" x="2083.5" y="-94.7" font-family="Iosevka Slab" font-size="14.00" fill="#393552">white</text>
<polygon fill="none" stroke="black" points="1994.5,-57 1994.5,-85 2078.5,-85 2078.5,-57 1994.5,-57"/>
<text text-anchor="start" x="1999.38" y="-66.7" font-family="Iosevka Slab" font-size="14.00" fill="#7638c5">bbox center</text>
<polygon fill="none" stroke="black" points="2078.5,-57 2078.5,-85 2155.5,-85 2155.5,-57 2078.5,-57"/>
<text text-anchor="start" x="2083.25" y="-66.7" font-family="Iosevka Slab" font-size="14.00" fill="#393552">[828, 407]</text>
<polygon fill="none" stroke="black" points="1994.5,-29 1994.5,-57 2078.5,-57 2078.5,-29 1994.5,-29"/>
<text text-anchor="start" x="1999.5" y="-38.7" font-family="Iosevka Slab" font-size="14.00" fill="#7638c5">bbox width</text>
<polygon fill="none" stroke="black" points="2078.5,-29 2078.5,-57 2155.5,-57 2155.5,-29 2078.5,-29"/>
<text text-anchor="start" x="2083.5" y="-38.7" font-family="Iosevka Slab" font-size="14.00" fill="#393552">233</text>
<polygon fill="none" stroke="black" points="1994.5,-1 1994.5,-29 2078.5,-29 2078.5,-1 1994.5,-1"/>
<text text-anchor="start" x="1999.38" y="-10.7" font-family="Iosevka Slab" font-size="14.00" fill="#7638c5">bbox height</text>
<polygon fill="none" stroke="black" points="2078.5,-1 2078.5,-29 2155.5,-29 2155.5,-1 2078.5,-1"/>
<text text-anchor="start" x="2083.5" y="-10.7" font-family="Iosevka Slab" font-size="14.00" fill="#393552">61</text>
<polygon fill="none" stroke="black" points="1993.5,0 1993.5,-142 2156.5,-142 2156.5,0 1993.5,0"/>
</g>
</g>
</svg>
