<?xml version="1.0" encoding="UTF-8" standalone="no"?>
<!-- Created with Inkscape (http://www.inkscape.org/) -->

<svg
   width="171.93338mm"
   height="174.36502mm"
   viewBox="0 0 171.93338 174.36502"
   version="1.1"
   id="svg1"
   xml:space="preserve"
   inkscape:version="1.3.2 (091e20ef0f, 2023-11-25, custom)"
   sodipodi:docname="dog_squirrel_tree_mushroom.svg"
   xmlns:inkscape="http://www.inkscape.org/namespaces/inkscape"
   xmlns:sodipodi="http://sodipodi.sourceforge.net/DTD/sodipodi-0.dtd"
   xmlns="http://www.w3.org/2000/svg"
   xmlns:svg="http://www.w3.org/2000/svg"><sodipodi:namedview
     id="namedview1"
     pagecolor="#ffffff"
     bordercolor="#000000"
     borderopacity="0.25"
     inkscape:showpageshadow="2"
     inkscape:pageopacity="0.0"
     inkscape:pagecheckerboard="0"
     inkscape:deskcolor="#d1d1d1"
     inkscape:document-units="mm"
     inkscape:zoom="1.5542382"
     inkscape:cx="371.24297"
     inkscape:cy="353.54942"
     inkscape:window-width="2558"
     inkscape:window-height="1400"
     inkscape:window-x="0"
     inkscape:window-y="240"
     inkscape:window-maximized="1"
     inkscape:current-layer="layer1" /><defs
     id="defs1" /><g
     inkscape:label="Layer 1"
     inkscape:groupmode="layer"
     id="layer1"
     transform="translate(-16.143061,-26.208245)"><ellipse
       style="opacity:1;fill:#2ca02c;stroke:#000000;stroke-width:0.264583;stroke-linecap:round;stroke-linejoin:round;stroke-dasharray:none;paint-order:stroke markers fill"
       id="path57"
       cx="102.10975"
       cy="182.58476"
       rx="85.834396"
       ry="17.856207" /><g
       id="g16"
       transform="matrix(1.2146405,0,0,1.2146405,23.476248,-18.876758)"><path
         style="fill:#502d16;stroke:#000000;stroke-width:0.264584;stroke-linecap:round;stroke-linejoin:round;stroke-dasharray:none;paint-order:stroke markers fill"
         d="m 34.304206,155.48773 c -3.262533,0.67842 -6.587075,2.63629 -7.217263,6.01918 -0.315245,1.69225 -1.704682,3.6081 -3.513547,3.149 -1.91897,-0.48706 -4.910491,-0.79679 -6.077201,1.72907 -0.470748,1.01915 -1.150367,2.15305 -2.571404,2.17491 -0.438088,0.007 -0.522769,-0.82171 -0.416344,-1.24673 0.162829,-0.65029 0.93576,-1.0257 1.522075,-1.35071 0.80656,-0.4471 1.141466,-2.55133 1.831542,-3.2078 0.482727,-0.45921 0.514461,-0.27944 1.171423,-0.16851 1.101129,0.18594 1.71723,-0.24901 1.734564,-0.90019 0.02593,-0.97405 -1.118075,-4.02737 1.326054,-6.6319"
         id="path4" /><path
         style="fill:#502d16;stroke:#000000;stroke-width:0.264584;stroke-linecap:round;stroke-linejoin:round;stroke-dasharray:none;paint-order:stroke markers fill"
         d="m 46.340923,148.67044 c 0.631997,0.76662 0.385787,1.53886 0.344171,2.08197 -0.102622,1.33926 2.28079,1.13951 3.515028,1.04773 2.057021,-0.15296 4.403707,0.0622 6.407332,0.53439 0.448867,0.10578 0.157647,1.04762 -0.292838,1.30545 -0.886613,0.50746 -1.309391,-0.14618 -1.87221,-0.16742 -2.435537,-0.0919 -4.077431,0.0584 -5.950608,0.43215 -0.836116,0.16686 -2.557234,0.86275 -3.409156,0.89681 -0.678301,0.0271 -0.879951,-0.91063 -1.389326,-0.46189"
         id="path3" /><path
         style="fill:#784421;stroke:#000000;stroke-width:0.264584;stroke-linecap:round;stroke-linejoin:round;stroke-dasharray:none;paint-order:stroke markers fill"
         d="m 50.120934,138.2793 c 0.351444,0.43736 1.108065,0.7699 2.877823,0.76818 0.99286,-9.7e-4 0.879346,0.61002 0.840991,1.05921 -0.05786,0.67759 -0.323813,0.73045 -0.980533,1.07691 -0.127565,0.0673 -4.123382,-0.0305 -4.218391,0.0552 -0.720706,0.65017 3.273258,1.20923 3.376928,1.27536 0.222635,0.14202 -0.126472,0.32249 -0.389609,0.35331 -0.844808,0.0989 -2.69355,-0.25907 -3.657865,-0.009 -1.585628,0.41062 -2.118014,1.59145 -1.755522,2.69536 0.196753,0.59918 0.626484,1.11677 1.084522,1.55028 0.7216,0.68295 0.572368,1.47963 0.597955,2.02373 0.06309,1.34171 2.403764,0.84995 3.617303,0.60687 2.022524,-0.40513 4.377846,-0.4806 6.424369,-0.25877 0.458477,0.0497 0.285465,1.02023 -0.129837,1.33158 -0.817369,0.61278 -1.317426,0.0162 -1.878578,0.0644 -2.428316,0.20872 -4.039204,0.56006 -5.852087,1.16171 -0.809202,0.26855 -2.431515,1.17111 -3.272757,1.30983 -0.6698,0.11044 -0.9854,-0.79533 -1.435634,-0.28728 -2.402978,2.71157 -3.909607,2.80308 -10.907081,2.8826 -3.332109,0.0379 -6.971295,1.31933 -8.240741,4.5177 -0.635026,1.59996 -2.367193,3.2126 -4.053889,2.41396 -1.789366,-0.84726 -4.665357,-1.72691 -6.296359,0.5272 -0.658084,0.9095 -1.543218,1.89141 -2.941897,1.63939 -0.431196,-0.0777 -0.354858,-0.90697 -0.168629,-1.30356 0.284935,-0.6068 1.115663,-0.82644 1.753566,-1.03254 0.877528,-0.28352 1.611132,-2.28396 2.414645,-2.79535 0.562078,-0.35773 0.558623,-0.17521 1.181954,0.0601 1.044762,0.39437 1.733052,0.0861 1.875381,-0.54955 0.2129,-0.95086 -0.322107,-4.16726 2.577574,-6.25273 -0.280442,-4.47414 3.462888,-8.83099 11.486168,-7.04289 1.16865,0.26045 -0.624557,1.38459 -3.624175,1.27734 -2.134179,-0.0763 -5.190058,0.73695 -5.361901,3.69653 -0.05364,0.92386 2.771163,-0.14952 4.157407,-0.12614 3.463958,0.0584 5.596041,-2.32341 7.697521,-4.45998 2.075374,-2.11002 3.24325,-5.53374 5.392241,-7.05394 2.499356,-1.76805 5.818271,-3.65227 7.809137,-1.17472 z"
         id="path2"
         sodipodi:nodetypes="sssssssssssssssssssssssssssscsssssss" /><path
         style="fill:#784421;stroke:#000000;stroke-width:0.264584;stroke-linecap:round;stroke-linejoin:round;stroke-dasharray:none;paint-order:stroke markers fill"
         d="m 46.46313,138.57072 c -2.698476,-0.30276 -4.240651,0.69798 -5.157033,0.12983 -2.650472,-1.64327 1.054284,-4.94875 5.941734,-0.99572"
         id="path5"
         sodipodi:nodetypes="csc" /><path
         style="fill:#000000;stroke:none;stroke-width:0.264584;stroke-linecap:round;stroke-linejoin:round;stroke-dasharray:none;paint-order:stroke markers fill"
         d="m 53.080471,139.00766 c -0.222328,0.69242 0.186795,0.92862 0.808522,1.01121 0.04978,-0.2691 -0.0067,-0.53819 -0.135231,-0.80728 -0.220634,-0.16112 -0.444914,-0.23277 -0.673291,-0.20393 z"
         id="path7"
         sodipodi:nodetypes="cccc" /><ellipse
         style="fill:#f9f9f9;stroke:#000000;stroke-width:0.264584;stroke-linecap:round;stroke-linejoin:round;stroke-dasharray:none;paint-order:stroke markers fill"
         id="path11"
         cx="48.235695"
         cy="139.07063"
         rx="0.72110796"
         ry="0.51016575" /><circle
         id="path6"
         style="fill:#000000;stroke:none;stroke-width:0.264584;stroke-dasharray:none"
         cx="-48.606636"
         cy="139.07063"
         r="0.48245797"
         transform="scale(-1,1)" /></g><path
       style="opacity:1;fill:#502d16;stroke:#000000;stroke-width:0.264583;stroke-linecap:round;stroke-linejoin:round;stroke-dasharray:none;paint-order:stroke markers fill"
       d="m 97.570755,178.51172 c 0,0 10.730245,-7.36367 15.783965,-20.34055 3.72287,-9.55953 3.14478,-38.32309 4.01265,-44.21233 1.83599,-12.45883 -15.04352,-24.590149 -22.891895,-25.768066 l 9.813685,-4.113188 c 14.21052,1.822478 16.81448,11.224576 24.02567,17.617934 4.4701,-9.541657 13.56407,-15.162997 22.31268,-16.891534 l 6.94167,4.472182 c -1.05661,3.12429 -22.26636,8.220121 -23.17605,27.480922 -0.66974,14.18034 1.45629,35.33796 1.46541,41.73211 0.0206,14.42047 14.524,20.68408 14.524,20.68408 -11.96763,1.25904 -13.8954,-1.84045 -21.62234,-7.7205 0.21886,4.89316 -0.96425,8.60667 -1.77162,10.99971 -3.87978,-6.14867 -1.62719,-7.68651 -8.82106,-10.80497 -9.30956,7.24887 -15.25745,6.08275 -20.596765,6.8642 z"
       id="path16"
       sodipodi:nodetypes="csscccccssccccc" /><path
       id="path18"
       style="opacity:1;fill:#005500;stroke:#165016;stroke-width:0.264583;stroke-linecap:round;stroke-linejoin:round;stroke-dasharray:none;paint-order:stroke markers fill"
       d="m 108.58899,26.340536 a 17.529402,18.034298 0 0 0 -17.529685,18.034559 17.529402,18.034298 0 0 0 0.61754,4.64261 13.003702,11.401769 0 0 0 -0.30955,0.01912 8.0950289,6.9322968 0 0 0 -8.072892,-6.449736 8.0950289,6.9322968 0 0 0 -8.095111,6.932394 8.0950289,6.9322968 0 0 0 1.422653,3.905188 15.847729,14.803146 0 0 0 -7.736479,12.686047 15.847729,14.803146 0 0 0 0.862996,4.724259 18.14871,17.01503 0 0 0 -10.025744,15.178919 18.14871,17.01503 0 0 0 18.148763,17.014984 18.14871,17.01503 0 0 0 8.957072,-2.26395 11.635478,12.422523 0 0 0 11.070652,8.65426 11.635478,12.422523 0 0 0 11.585345,-11.676811 12.699557,11.199924 0 0 0 8.07599,-7.872388 5.0649314,4.9797544 0 0 0 3.65094,1.544092 5.0649314,4.9797544 0 0 0 5.06481,-4.979541 5.0649314,4.9797544 0 0 0 -1.79679,-3.802869 11.861922,10.903031 0 0 0 1.59576,-1.268139 13.363585,11.695379 0 0 0 4.35013,1.355989 13.876036,14.802741 0 0 0 11.64786,8.665104 8.4638863,9.0069103 0 0 0 -1.26297,4.711858 8.4638863,9.0069103 0 0 0 8.46357,9.007205 8.4638863,9.0069103 0 0 0 3.73155,-0.93948 8.914629,7.7663879 0 0 0 -0.0708,0.86816 8.914629,7.7663879 0 0 0 8.91418,7.76645 8.914629,7.7663879 0 0 0 8.9147,-7.76645 8.914629,7.7663879 0 0 0 -0.0253,-0.55397 10.707116,9.6429949 0 0 0 0.0279,0.002 10.707116,9.6429949 0 0 0 10.70684,-9.64282 10.707116,9.6429949 0 0 0 -7.36958,-9.159648 14.079188,13.996117 0 0 0 0.0346,-0.483174 14.079188,13.996117 0 0 0 -1.91202,-7.035747 15.733665,12.124695 0 0 0 5.68905,-9.303824 15.733665,12.124695 0 0 0 -15.73392,-12.124325 15.733665,12.124695 0 0 0 -2.96209,0.242879 17.271141,15.952837 0 0 0 7.93905,-13.42347 17.271141,15.952837 0 0 0 -17.27078,-15.953031 17.271141,15.952837 0 0 0 -10.06554,3.03599 13.975414,10.090135 0 0 0 -8.47183,-2.06654 13.975414,10.090135 0 0 0 -10.20972,3.225126 17.529402,18.034298 0 0 0 -12.55117,-5.450831 z" /><g
       id="g15"
       transform="matrix(0.4636938,-1.3156147,1.3156147,0.4636938,-136.67582,192.07715)"><path
         style="fill:#aa4400;stroke:#000000;stroke-width:0.264583;stroke-linecap:round;stroke-linejoin:round;stroke-dasharray:none;paint-order:stroke markers fill"
         d="m 93.517056,152.41404 c 0,0 -1.018146,-2.51406 -2.165492,-3.07127 -0.570108,-0.27687 -1.570413,-0.57156 -1.764303,0.0318 -0.167398,0.52095 0.84983,0.54929 0.823481,0.80317 -0.217083,2.09169 -6.843055,-1.15492 -2.065225,-3.71523 1.522775,-0.81601 4.785107,-0.079 5.85989,2.0659 0.587828,1.17309 -0.318493,3.69212 -0.318493,3.69212"
         id="path12"
         sodipodi:nodetypes="csssssc" /><path
         style="fill:#aa4400;stroke:#000000;stroke-width:0.264583;stroke-linecap:round;stroke-linejoin:round;stroke-dasharray:none;paint-order:stroke markers fill"
         d="m 99.678149,150.56206 c -0.09487,-0.63748 -0.200698,-1.27869 0.100324,-1.78145 0.722537,0.50998 0.866647,0.99489 1.076407,1.48265 z"
         id="path9-6"
         sodipodi:nodetypes="cccc" /><path
         style="fill:#aa4400;stroke:#000000;stroke-width:0.264583;stroke-linecap:round;stroke-linejoin:round;stroke-dasharray:none;paint-order:stroke markers fill"
         d="m 99.590866,151.0291 c -0.397063,-0.50766 -0.805505,-1.01316 -0.791754,-1.59899 0.880088,0.0871 1.244708,0.43772 1.667818,0.75847 z"
         id="path9-6-9"
         sodipodi:nodetypes="cccc" /><path
         style="fill:#803300;stroke:#000000;stroke-width:0.264583;stroke-linecap:round;stroke-linejoin:round;stroke-dasharray:none;paint-order:stroke markers fill"
         d="m 93.012614,153.57566 c 0,0 0.123031,1.54283 -0.607801,1.17264 -0.534891,-0.27093 -0.388922,0.68446 -0.46645,1.06381 -0.116016,0.56768 -0.435567,1.58469 0.120996,1.74581 0.547876,0.1586 0.400679,-1.06376 0.825005,-1.4449 0.91758,0.33472 2.020179,0.60768 2.633776,-1.32622"
         id="path10" /><path
         style="fill:#803300;stroke:#000000;stroke-width:0.264583;stroke-linecap:round;stroke-linejoin:round;stroke-dasharray:none;paint-order:stroke markers fill"
         d="m 99.02023,154.34053 c 0.942344,1.51632 1.99568,0.9766 3.10346,0.93252 0.23516,-0.009 0.63963,0.33884 0.79083,0.1585 0.44496,-0.53072 -0.2126,-0.90236 -0.5867,-1.02436 -0.65298,-0.21295 -1.52579,0.0895 -1.6488,-0.47019"
         id="path9" /><path
         style="fill:#aa4400;stroke:#000000;stroke-width:0.264583;stroke-linecap:round;stroke-linejoin:round;stroke-dasharray:none;paint-order:stroke markers fill"
         d="m 99.239807,151.36871 c -0.635342,0.95905 -1.636698,0.7668 -2.706413,0.26319 -1.659237,-0.78116 -3.158503,-0.39405 -3.78577,1.30753 0,0 -0.312172,1.51592 -0.91075,0.95658 -0.438094,-0.40938 -0.564392,0.54881 -0.74465,0.89149 -0.26975,0.51279 -0.860281,1.40031 -0.370743,1.71027 0.481895,0.30512 0.681476,-0.90978 1.19527,-1.15745 0.787806,0.57737 1.770517,1.14703 2.89916,-0.53898 1.752332,0.7594 3.323524,0.62822 4.785443,-0.25686 1.478246,1.00102 2.220416,0.0791 3.214186,-0.4124 0.21095,-0.10433 0.72218,0.0489 0.78682,-0.17735 0.19021,-0.66593 -0.5617,-0.73752 -0.95306,-0.69657 -0.68309,0.0715 -1.35704,0.70319 -1.69735,0.24214 -0.0985,-0.13343 0.0937,-0.33096 0.20626,-0.45277 0.45645,-0.49404 0.64638,-0.18194 1.91311,-0.76806 0.28629,-0.13246 0.56576,-0.97356 0.24639,-0.96045 -0.30728,0.0126 -0.82053,-0.52509 -1.39073,-0.88154 -0.41637,-0.2603 -1.00634,-0.36502 -1.46005,-0.2489 -0.549783,0.1407 -0.726547,0.4245 -1.227123,1.18013 z"
         id="path8" /><ellipse
         style="opacity:1;fill:#f9f9f9;stroke:#000000;stroke-width:0.264583;stroke-linecap:round;stroke-linejoin:round;stroke-dasharray:none;paint-order:stroke markers fill"
         id="path13"
         cx="101.41415"
         cy="150.95088"
         rx="0.34288427"
         ry="0.2583206" /><ellipse
         style="opacity:1;fill:#000000;stroke:#000000;stroke-width:0.264583;stroke-linecap:round;stroke-linejoin:round;stroke-dasharray:none;paint-order:stroke markers fill"
         id="path14"
         cx="101.56685"
         cy="150.95088"
         rx="0.19018915"
         ry="0.16865872" /><ellipse
         style="fill:#000000;stroke:#000000;stroke-width:0.264583;stroke-linecap:round;stroke-linejoin:round;stroke-dasharray:none;paint-order:stroke markers fill"
         id="path14-3"
         cx="103.31771"
         cy="151.48767"
         rx="0.19018915"
         ry="0.16865872" /></g><path
       style="opacity:1;fill:#c83737;stroke:#000000;stroke-width:0.226571;stroke-linecap:round;stroke-linejoin:round;stroke-dasharray:none;paint-order:stroke markers fill"
       d="m 146.84983,160.93431 c -4.07276,-2.21922 5.87219,-9.11355 11.54529,-9.17121 6.75793,-0.0687 19.42257,9.19827 14.16064,10.64127 -6.10894,1.67529 -20.0599,1.60643 -25.70593,-1.47006 z"
       id="path46"
       sodipodi:nodetypes="sass" /><path
       style="fill:#ffeeaa;stroke:#000000;stroke-width:0.226571;stroke-linecap:round;stroke-linejoin:round;stroke-dasharray:none;paint-order:stroke markers fill"
       d="m 146.84983,160.93431 c -4.07276,-2.21922 10.4252,-1.61485 13.95537,-1.56522 4.15199,0.0584 17.01249,1.59228 11.75056,3.03528 -6.10894,1.67529 -20.0599,1.60643 -25.70593,-1.47006 z"
       id="path46-2"
       sodipodi:nodetypes="ssss" /><path
       style="opacity:1;fill:#e3dedb;stroke:#000000;stroke-width:0.264583;stroke-linecap:round;stroke-linejoin:round;stroke-dasharray:none;paint-order:stroke markers fill"
       d="m 157.47776,161.0494 c -0.18698,3.8905 -2.98044,4.10903 -1.64225,18.22734 l 5.9664,0.46039 c -2.69381,-6.78444 -4.6742,-10.6043 -0.65891,-18.34896 -1.09724,-0.53687 -2.3046,-0.69879 -3.66524,-0.33877 z"
       id="path45"
       sodipodi:nodetypes="ccccc" /><ellipse
       style="opacity:1;fill:#e3dedb;stroke:#000000;stroke-width:0.226571;stroke-linecap:round;stroke-linejoin:round;stroke-dasharray:none;paint-order:stroke markers fill"
       id="path47"
       cx="155.72"
       cy="154.54047"
       rx="1.8681741"
       ry="0.77424729" /><ellipse
       style="opacity:1;fill:#e3dedb;stroke:#000000;stroke-width:0.226571;stroke-linecap:round;stroke-linejoin:round;stroke-dasharray:none;paint-order:stroke markers fill"
       id="path48"
       cx="164.6223"
       cy="155.25549"
       rx="1.1948783"
       ry="0.72707367" /><ellipse
       style="opacity:1;fill:#e3dedb;stroke:#000000;stroke-width:0.226571;stroke-linecap:round;stroke-linejoin:round;stroke-dasharray:none;paint-order:stroke markers fill"
       id="path49"
       cx="160.12045"
       cy="156.60112"
       rx="0.54294777"
       ry="0.65834558" /><path
       id="path50"
       style="opacity:1;fill:#e3dedb;stroke:#000000;stroke-width:0.226571;stroke-linecap:round;stroke-linejoin:round;stroke-dasharray:none;paint-order:stroke markers fill"
       d="m 158.83589,151.77722 a 1.9613423,1.2667493 0 0 0 -0.11317,0.41457 1.9613423,1.2667493 0 0 0 1.96164,1.26681 1.9613423,1.2667493 0 0 0 1.87378,-0.89659 c -1.31584,-0.44971 -2.58861,-0.73307 -3.72225,-0.78479 z" /><ellipse
       style="opacity:1;fill:#e3dedb;stroke:#000000;stroke-width:0.226571;stroke-linecap:round;stroke-linejoin:round;stroke-dasharray:none;paint-order:stroke markers fill"
       id="path51"
       cx="167.00182"
       cy="158.37685"
       rx="1.2109507"
       ry="0.68636554" /><path
       id="path52"
       style="opacity:1;fill:#e3dedb;stroke:#000000;stroke-width:0.226571;stroke-linecap:round;stroke-linejoin:round;stroke-dasharray:none;paint-order:stroke markers fill"
       d="m 171.64441,157.88164 a 0.89405489,1.013521 0 0 0 -0.10439,0.47141 0.89405489,1.013521 0 0 0 0.89401,1.01367 0.89405489,1.013521 0 0 0 0.47129,-0.15423 c -0.3403,-0.42843 -0.76533,-0.87577 -1.26091,-1.33085 z" /><ellipse
       style="opacity:1;fill:#e3dedb;stroke:#000000;stroke-width:0.226571;stroke-linecap:round;stroke-linejoin:round;stroke-dasharray:none;paint-order:stroke markers fill"
       id="path53"
       cx="154.38196"
       cy="157.55978"
       rx="1.1565003"
       ry="0.78337908" /><path
       id="path54"
       style="opacity:1;fill:#e3dedb;stroke:#000000;stroke-width:0.226571;stroke-linecap:round;stroke-linejoin:round;stroke-dasharray:none;paint-order:stroke markers fill"
       d="m 151.17021,154.10811 c -0.65141,0.36868 -1.2726,0.765 -1.84847,1.17472 a 1.1808344,0.94870705 0 0 0 0.94878,0.38843 1.1808344,0.94870705 0 0 0 1.18081,-0.94851 1.1808344,0.94870705 0 0 0 -0.28112,-0.61464 z" /><ellipse
       style="opacity:1;fill:#e3dedb;stroke:#000000;stroke-width:0.226571;stroke-linecap:round;stroke-linejoin:round;stroke-dasharray:none;paint-order:stroke markers fill"
       id="path55"
       cx="148.86678"
       cy="157.73825"
       rx="0.92909306"
       ry="0.46195632" /></g></svg>
