<?xml version="1.0" encoding="UTF-8" standalone="no"?>
<!DOCTYPE svg PUBLIC "-//W3C//DTD SVG 1.1//EN"
 "http://www.w3.org/Graphics/SVG/1.1/DTD/svg11.dtd">
<!-- Generated by graphviz version 10.0.1 (0)
 -->
<!-- Title: summer_simple Pages: 1 -->
<svg width="765pt" height="831pt"
 viewBox="0.00 0.00 765.25 830.75" xmlns="http://www.w3.org/2000/svg" xmlns:xlink="http://www.w3.org/1999/xlink">
<g id="graph0" class="graph" transform="scale(1 1) rotate(0) translate(4 826.75)">
<title>summer_simple</title>
<polygon fill="white" stroke="none" points="-4,4 -4,-826.75 761.25,-826.75 761.25,4 -4,4"/>
<text text-anchor="middle" x="378.62" y="-805.45" font-family="Iosevka Slab" font-size="14.00">scene from image: summer_simple</text>
<!-- sun -->
<g id="node1" class="node">
<title>sun</title>
<polygon fill="black" stroke="none" points="4.5,-113 4.5,-141 158.5,-141 158.5,-113 4.5,-113"/>
<polygon fill="none" stroke="black" points="4.5,-113 4.5,-141 158.5,-141 158.5,-113 4.5,-113"/>
<text text-anchor="start" x="9.5" y="-123.7" font-family="Iosevka Slab" font-weight="bold" font-size="14.00" fill="white">sun</text>
<polygon fill="none" stroke="black" points="4.5,-85 4.5,-113 88.5,-113 88.5,-85 4.5,-85"/>
<text text-anchor="start" x="9.5" y="-94.7" font-family="Iosevka Slab" font-size="14.00" fill="#7638c5">color</text>
<polygon fill="none" stroke="black" points="88.5,-85 88.5,-113 158.5,-113 158.5,-85 88.5,-85"/>
<text text-anchor="start" x="93.5" y="-94.7" font-family="Iosevka Slab" font-size="14.00" fill="#393552">yellow</text>
<polygon fill="none" stroke="black" points="4.5,-57 4.5,-85 88.5,-85 88.5,-57 4.5,-57"/>
<text text-anchor="start" x="9.38" y="-66.7" font-family="Iosevka Slab" font-size="14.00" fill="#7638c5">bbox center</text>
<polygon fill="none" stroke="black" points="88.5,-57 88.5,-85 158.5,-85 158.5,-57 88.5,-57"/>
<text text-anchor="start" x="93.12" y="-66.7" font-family="Iosevka Slab" font-size="14.00" fill="#393552">[290, 95]</text>
<polygon fill="none" stroke="black" points="4.5,-29 4.5,-57 88.5,-57 88.5,-29 4.5,-29"/>
<text text-anchor="start" x="9.5" y="-38.7" font-family="Iosevka Slab" font-size="14.00" fill="#7638c5">bbox width</text>
<polygon fill="none" stroke="black" points="88.5,-29 88.5,-57 158.5,-57 158.5,-29 88.5,-29"/>
<text text-anchor="start" x="93.5" y="-38.7" font-family="Iosevka Slab" font-size="14.00" fill="#393552">245</text>
<polygon fill="none" stroke="black" points="4.5,-1 4.5,-29 88.5,-29 88.5,-1 4.5,-1"/>
<text text-anchor="start" x="9.38" y="-10.7" font-family="Iosevka Slab" font-size="14.00" fill="#7638c5">bbox height</text>
<polygon fill="none" stroke="black" points="88.5,-1 88.5,-29 158.5,-29 158.5,-1 88.5,-1"/>
<text text-anchor="start" x="93.5" y="-10.7" font-family="Iosevka Slab" font-size="14.00" fill="#393552">145</text>
<polygon fill="none" stroke="black" points="3.5,0 3.5,-142 159.5,-142 159.5,0 3.5,0"/>
</g>
<!-- cloud -->
<g id="node2" class="node">
<title>cloud</title>
<polygon fill="black" stroke="none" points="318.25,-113 318.25,-141 479.25,-141 479.25,-113 318.25,-113"/>
<polygon fill="none" stroke="black" points="318.25,-113 318.25,-141 479.25,-141 479.25,-113 318.25,-113"/>
<text text-anchor="start" x="323.25" y="-123.7" font-family="Iosevka Slab" font-weight="bold" font-size="14.00" fill="white">cloud</text>
<polygon fill="none" stroke="black" points="318.25,-85 318.25,-113 402.25,-113 402.25,-85 318.25,-85"/>
<text text-anchor="start" x="323.25" y="-94.7" font-family="Iosevka Slab" font-size="14.00" fill="#7638c5">color</text>
<polygon fill="none" stroke="black" points="402.25,-85 402.25,-113 479.25,-113 479.25,-85 402.25,-85"/>
<text text-anchor="start" x="407.25" y="-94.7" font-family="Iosevka Slab" font-size="14.00" fill="#393552">white</text>
<polygon fill="none" stroke="black" points="318.25,-57 318.25,-85 402.25,-85 402.25,-57 318.25,-57"/>
<text text-anchor="start" x="323.12" y="-66.7" font-family="Iosevka Slab" font-size="14.00" fill="#7638c5">bbox center</text>
<polygon fill="none" stroke="black" points="402.25,-57 402.25,-85 479.25,-85 479.25,-57 402.25,-57"/>
<text text-anchor="start" x="407" y="-66.7" font-family="Iosevka Slab" font-size="14.00" fill="#393552">[318, 133]</text>
<polygon fill="none" stroke="black" points="318.25,-29 318.25,-57 402.25,-57 402.25,-29 318.25,-29"/>
<text text-anchor="start" x="323.25" y="-38.7" font-family="Iosevka Slab" font-size="14.00" fill="#7638c5">bbox width</text>
<polygon fill="none" stroke="black" points="402.25,-29 402.25,-57 479.25,-57 479.25,-29 402.25,-29"/>
<text text-anchor="start" x="407.25" y="-38.7" font-family="Iosevka Slab" font-size="14.00" fill="#393552">564</text>
<polygon fill="none" stroke="black" points="318.25,-1 318.25,-29 402.25,-29 402.25,-1 318.25,-1"/>
<text text-anchor="start" x="323.12" y="-10.7" font-family="Iosevka Slab" font-size="14.00" fill="#7638c5">bbox height</text>
<polygon fill="none" stroke="black" points="402.25,-1 402.25,-29 479.25,-29 479.25,-1 402.25,-1"/>
<text text-anchor="start" x="407.25" y="-10.7" font-family="Iosevka Slab" font-size="14.00" fill="#393552">87</text>
<polygon fill="none" stroke="black" points="317.25,0 317.25,-142 480.25,-142 480.25,0 317.25,0"/>
</g>
<!-- sun&#45;&gt;cloud -->
<g id="edge1" class="edge">
<title>sun&#45;&gt;cloud</title>
<path fill="none" stroke="black" d="M159.22,-71C203.59,-71 259.71,-71 306.36,-71"/>
<polygon fill="black" stroke="black" points="316.17,-71 306.17,-75.5 312.38,-71 306.17,-71 306.17,-71 306.17,-71 312.38,-71 306.17,-66.5 316.17,-71"/>
<text text-anchor="middle" x="238.38" y="-76.45" font-family="Iosevka Slab" font-size="14.00">is hidden behind</text>
</g>
<!-- dog -->
<g id="node3" class="node">
<title>dog</title>
<polygon fill="black" stroke="none" points="1,-348 1,-376 162,-376 162,-348 1,-348"/>
<polygon fill="none" stroke="black" points="1,-348 1,-376 162,-376 162,-348 1,-348"/>
<text text-anchor="start" x="6" y="-358.7" font-family="Iosevka Slab" font-weight="bold" font-size="14.00" fill="white">dog</text>
<polygon fill="none" stroke="black" points="1,-320 1,-348 85,-348 85,-320 1,-320"/>
<text text-anchor="start" x="6" y="-329.7" font-family="Iosevka Slab" font-size="14.00" fill="#7638c5">color</text>
<polygon fill="none" stroke="black" points="85,-320 85,-348 162,-348 162,-320 85,-320"/>
<text text-anchor="start" x="90" y="-329.7" font-family="Iosevka Slab" font-size="14.00" fill="#393552">brown</text>
<polygon fill="none" stroke="black" points="1,-292 1,-320 85,-320 85,-292 1,-292"/>
<text text-anchor="start" x="5.88" y="-301.7" font-family="Iosevka Slab" font-size="14.00" fill="#7638c5">bbox center</text>
<polygon fill="none" stroke="black" points="85,-292 85,-320 162,-320 162,-292 85,-292"/>
<text text-anchor="start" x="89.75" y="-301.7" font-family="Iosevka Slab" font-size="14.00" fill="#393552">[855, 446]</text>
<polygon fill="none" stroke="black" points="1,-264 1,-292 85,-292 85,-264 1,-264"/>
<text text-anchor="start" x="6" y="-273.7" font-family="Iosevka Slab" font-size="14.00" fill="#7638c5">bbox width</text>
<polygon fill="none" stroke="black" points="85,-264 85,-292 162,-292 162,-264 85,-264"/>
<text text-anchor="start" x="90" y="-273.7" font-family="Iosevka Slab" font-size="14.00" fill="#393552">288</text>
<polygon fill="none" stroke="black" points="1,-236 1,-264 85,-264 85,-236 1,-236"/>
<text text-anchor="start" x="5.88" y="-245.7" font-family="Iosevka Slab" font-size="14.00" fill="#7638c5">bbox height</text>
<polygon fill="none" stroke="black" points="85,-236 85,-264 162,-264 162,-236 85,-236"/>
<text text-anchor="start" x="90" y="-245.7" font-family="Iosevka Slab" font-size="14.00" fill="#393552">135</text>
<polygon fill="none" stroke="black" points="0,-235 0,-377 163,-377 163,-235 0,-235"/>
</g>
<!-- squirrel -->
<g id="node4" class="node">
<title>squirrel</title>
<polygon fill="black" stroke="none" points="314.75,-433 314.75,-461 482.75,-461 482.75,-433 314.75,-433"/>
<polygon fill="none" stroke="black" points="314.75,-433 314.75,-461 482.75,-461 482.75,-433 314.75,-433"/>
<text text-anchor="start" x="319.75" y="-443.7" font-family="Iosevka Slab" font-weight="bold" font-size="14.00" fill="white">squirrel</text>
<polygon fill="none" stroke="black" points="314.75,-405 314.75,-433 398.75,-433 398.75,-405 314.75,-405"/>
<text text-anchor="start" x="319.75" y="-414.7" font-family="Iosevka Slab" font-size="14.00" fill="#7638c5">color</text>
<polygon fill="none" stroke="black" points="398.75,-405 398.75,-433 482.75,-433 482.75,-405 398.75,-405"/>
<text text-anchor="start" x="403.75" y="-414.7" font-family="Iosevka Slab" font-size="14.00" fill="#393552">orange</text>
<polygon fill="none" stroke="black" points="314.75,-377 314.75,-405 398.75,-405 398.75,-377 314.75,-377"/>
<text text-anchor="start" x="319.62" y="-386.7" font-family="Iosevka Slab" font-size="14.00" fill="#7638c5">bbox center</text>
<polygon fill="none" stroke="black" points="398.75,-377 398.75,-405 482.75,-405 482.75,-377 398.75,-377"/>
<text text-anchor="start" x="403.62" y="-386.7" font-family="Iosevka Slab" font-size="14.00" fill="#393552">[1078, 377]</text>
<polygon fill="none" stroke="black" points="314.75,-349 314.75,-377 398.75,-377 398.75,-349 314.75,-349"/>
<text text-anchor="start" x="319.75" y="-358.7" font-family="Iosevka Slab" font-size="14.00" fill="#7638c5">bbox width</text>
<polygon fill="none" stroke="black" points="398.75,-349 398.75,-377 482.75,-377 482.75,-349 398.75,-349"/>
<text text-anchor="start" x="403.75" y="-358.7" font-family="Iosevka Slab" font-size="14.00" fill="#393552">145</text>
<polygon fill="none" stroke="black" points="314.75,-321 314.75,-349 398.75,-349 398.75,-321 314.75,-321"/>
<text text-anchor="start" x="319.62" y="-330.7" font-family="Iosevka Slab" font-size="14.00" fill="#7638c5">bbox height</text>
<polygon fill="none" stroke="black" points="398.75,-321 398.75,-349 482.75,-349 482.75,-321 398.75,-321"/>
<text text-anchor="start" x="403.75" y="-330.7" font-family="Iosevka Slab" font-size="14.00" fill="#393552">93</text>
<polygon fill="none" stroke="black" points="313.75,-320 313.75,-462 483.75,-462 483.75,-320 313.75,-320"/>
</g>
<!-- dog&#45;&gt;squirrel -->
<g id="edge2" class="edge">
<title>dog&#45;&gt;squirrel</title>
<path fill="none" stroke="black" d="M162.77,-344.6C168.87,-346.94 174.99,-349.11 181,-351 220.28,-363.39 264.84,-372.43 303.3,-378.75"/>
<polygon fill="black" stroke="black" points="312.78,-380.27 302.19,-383.13 309.04,-379.67 302.9,-378.69 302.9,-378.69 302.9,-378.69 309.04,-379.67 303.62,-374.24 312.78,-380.27"/>
<text text-anchor="middle" x="238.38" y="-382.45" font-family="Iosevka Slab" font-size="14.00">chasing</text>
</g>
<!-- leash -->
<g id="node5" class="node">
<title>leash</title>
<polygon fill="black" stroke="none" points="318.25,-273 318.25,-301 479.25,-301 479.25,-273 318.25,-273"/>
<polygon fill="none" stroke="black" points="318.25,-273 318.25,-301 479.25,-301 479.25,-273 318.25,-273"/>
<text text-anchor="start" x="323.25" y="-283.7" font-family="Iosevka Slab" font-weight="bold" font-size="14.00" fill="white">leash</text>
<polygon fill="none" stroke="black" points="318.25,-245 318.25,-273 402.25,-273 402.25,-245 318.25,-245"/>
<text text-anchor="start" x="323.25" y="-254.7" font-family="Iosevka Slab" font-size="14.00" fill="#7638c5">color</text>
<polygon fill="none" stroke="black" points="402.25,-245 402.25,-273 479.25,-273 479.25,-245 402.25,-245"/>
<text text-anchor="start" x="407.25" y="-254.7" font-family="Iosevka Slab" font-size="14.00" fill="#393552">white</text>
<polygon fill="none" stroke="black" points="318.25,-217 318.25,-245 402.25,-245 402.25,-217 318.25,-217"/>
<text text-anchor="start" x="323.12" y="-226.7" font-family="Iosevka Slab" font-size="14.00" fill="#7638c5">bbox center</text>
<polygon fill="none" stroke="black" points="402.25,-217 402.25,-245 479.25,-245 479.25,-217 402.25,-217"/>
<text text-anchor="start" x="407" y="-226.7" font-family="Iosevka Slab" font-size="14.00" fill="#393552">[828, 407]</text>
<polygon fill="none" stroke="black" points="318.25,-189 318.25,-217 402.25,-217 402.25,-189 318.25,-189"/>
<text text-anchor="start" x="323.25" y="-198.7" font-family="Iosevka Slab" font-size="14.00" fill="#7638c5">bbox width</text>
<polygon fill="none" stroke="black" points="402.25,-189 402.25,-217 479.25,-217 479.25,-189 402.25,-189"/>
<text text-anchor="start" x="407.25" y="-198.7" font-family="Iosevka Slab" font-size="14.00" fill="#393552">233</text>
<polygon fill="none" stroke="black" points="318.25,-161 318.25,-189 402.25,-189 402.25,-161 318.25,-161"/>
<text text-anchor="start" x="323.12" y="-170.7" font-family="Iosevka Slab" font-size="14.00" fill="#7638c5">bbox height</text>
<polygon fill="none" stroke="black" points="402.25,-161 402.25,-189 479.25,-189 479.25,-161 402.25,-161"/>
<text text-anchor="start" x="407.25" y="-170.7" font-family="Iosevka Slab" font-size="14.00" fill="#393552">61</text>
<polygon fill="none" stroke="black" points="317.25,-160 317.25,-302 480.25,-302 480.25,-160 317.25,-160"/>
</g>
<!-- dog&#45;&gt;leash -->
<g id="edge3" class="edge">
<title>dog&#45;&gt;leash</title>
<path fill="none" stroke="black" d="M162.8,-287.37C202.78,-278.05 251.84,-266.53 295.75,-256 299.25,-255.16 302.82,-254.3 306.42,-253.43"/>
<polygon fill="black" stroke="black" points="316.13,-251.08 307.47,-257.81 312.45,-251.97 306.41,-253.44 306.41,-253.44 306.41,-253.44 312.45,-251.97 305.35,-249.06 316.13,-251.08"/>
<text text-anchor="middle" x="238.38" y="-288.45" font-family="Iosevka Slab" font-size="14.00">contains</text>
</g>
<!-- squirrel&#45;&gt;dog -->
<g id="edge4" class="edge">
<title>squirrel&#45;&gt;dog</title>
<path fill="none" stroke="black" d="M314.02,-335.6C307.97,-332.82 301.85,-330.32 295.75,-328.25 257.1,-315.11 212.43,-309.14 173.98,-306.62"/>
<polygon fill="black" stroke="black" points="164.01,-306.04 174.25,-302.13 167.79,-306.26 173.99,-306.62 173.99,-306.62 173.99,-306.62 167.79,-306.26 173.73,-311.11 164.01,-306.04"/>
<text text-anchor="middle" x="238.38" y="-334.45" font-family="Iosevka Slab" font-size="14.00">running away from</text>
</g>
<!-- tree #2 -->
<g id="node6" class="node">
<title>tree #2</title>
<polygon fill="black" stroke="none" points="588.25,-433 588.25,-461 756.25,-461 756.25,-433 588.25,-433"/>
<polygon fill="none" stroke="black" points="588.25,-433 588.25,-461 756.25,-461 756.25,-433 588.25,-433"/>
<text text-anchor="start" x="593.25" y="-443.7" font-family="Iosevka Slab" font-weight="bold" font-size="14.00" fill="white">tree #2</text>
<polygon fill="none" stroke="black" points="588.25,-405 588.25,-433 672.25,-433 672.25,-405 588.25,-405"/>
<text text-anchor="start" x="593.25" y="-414.7" font-family="Iosevka Slab" font-size="14.00" fill="#7638c5">color</text>
<polygon fill="none" stroke="black" points="672.25,-405 672.25,-433 756.25,-433 756.25,-405 672.25,-405"/>
<text text-anchor="start" x="677.25" y="-414.7" font-family="Iosevka Slab" font-size="14.00" fill="#393552">green</text>
<polygon fill="none" stroke="black" points="588.25,-377 588.25,-405 672.25,-405 672.25,-377 588.25,-377"/>
<text text-anchor="start" x="593.12" y="-386.7" font-family="Iosevka Slab" font-size="14.00" fill="#7638c5">bbox center</text>
<polygon fill="none" stroke="black" points="672.25,-377 672.25,-405 756.25,-405 756.25,-377 672.25,-377"/>
<text text-anchor="start" x="677.12" y="-386.7" font-family="Iosevka Slab" font-size="14.00" fill="#393552">[1149, 263]</text>
<polygon fill="none" stroke="black" points="588.25,-349 588.25,-377 672.25,-377 672.25,-349 588.25,-349"/>
<text text-anchor="start" x="593.25" y="-358.7" font-family="Iosevka Slab" font-size="14.00" fill="#7638c5">bbox width</text>
<polygon fill="none" stroke="black" points="672.25,-349 672.25,-377 756.25,-377 756.25,-349 672.25,-349"/>
<text text-anchor="start" x="677.25" y="-358.7" font-family="Iosevka Slab" font-size="14.00" fill="#393552">489</text>
<polygon fill="none" stroke="black" points="588.25,-321 588.25,-349 672.25,-349 672.25,-321 588.25,-321"/>
<text text-anchor="start" x="593.12" y="-330.7" font-family="Iosevka Slab" font-size="14.00" fill="#7638c5">bbox height</text>
<polygon fill="none" stroke="black" points="672.25,-321 672.25,-349 756.25,-349 756.25,-321 672.25,-321"/>
<text text-anchor="start" x="677.25" y="-330.7" font-family="Iosevka Slab" font-size="14.00" fill="#393552">517</text>
<polygon fill="none" stroke="black" points="587.25,-320 587.25,-462 757.25,-462 757.25,-320 587.25,-320"/>
</g>
<!-- squirrel&#45;&gt;tree #2 -->
<g id="edge5" class="edge">
<title>squirrel&#45;&gt;tree #2</title>
<path fill="none" stroke="black" d="M483.42,-391C512.84,-391 546.11,-391 576.38,-391"/>
<polygon fill="black" stroke="black" points="586.17,-391 576.17,-395.5 582.38,-391 576.17,-391 576.17,-391 576.17,-391 582.38,-391 576.17,-386.5 586.17,-391"/>
<text text-anchor="middle" x="535.5" y="-396.45" font-family="Iosevka Slab" font-size="14.00">climbing</text>
</g>
<!-- leash&#45;&gt;dog -->
<g id="edge11" class="edge">
<title>leash&#45;&gt;dog</title>
<path fill="none" stroke="black" d="M317.29,-220.2C275.59,-217.48 224.44,-218.7 181,-233.25 178.31,-234.15 175.63,-235.16 172.97,-236.25"/>
<polygon fill="black" stroke="black" points="163.94,-240.39 171.15,-232.14 167.37,-238.82 173.03,-236.23 173.03,-236.23 173.03,-236.23 167.37,-238.82 174.9,-240.32 163.94,-240.39"/>
<text text-anchor="middle" x="238.38" y="-239.45" font-family="Iosevka Slab" font-size="14.00">is part of</text>
</g>
<!-- bird -->
<g id="node7" class="node">
<title>bird</title>
<polygon fill="black" stroke="none" points="1,-593 1,-621 162,-621 162,-593 1,-593"/>
<polygon fill="none" stroke="black" points="1,-593 1,-621 162,-621 162,-593 1,-593"/>
<text text-anchor="start" x="6" y="-603.7" font-family="Iosevka Slab" font-weight="bold" font-size="14.00" fill="white">bird</text>
<polygon fill="none" stroke="black" points="1,-565 1,-593 85,-593 85,-565 1,-565"/>
<text text-anchor="start" x="6" y="-574.7" font-family="Iosevka Slab" font-size="14.00" fill="#7638c5">color</text>
<polygon fill="none" stroke="black" points="85,-565 85,-593 162,-593 162,-565 85,-565"/>
<text text-anchor="start" x="90" y="-574.7" font-family="Iosevka Slab" font-size="14.00" fill="#393552">white</text>
<polygon fill="none" stroke="black" points="1,-537 1,-565 85,-565 85,-537 1,-537"/>
<text text-anchor="start" x="5.88" y="-546.7" font-family="Iosevka Slab" font-size="14.00" fill="#7638c5">bbox center</text>
<polygon fill="none" stroke="black" points="85,-537 85,-565 162,-565 162,-537 85,-537"/>
<text text-anchor="start" x="89.75" y="-546.7" font-family="Iosevka Slab" font-size="14.00" fill="#393552">[405, 254]</text>
<polygon fill="none" stroke="black" points="1,-509 1,-537 85,-537 85,-509 1,-509"/>
<text text-anchor="start" x="6" y="-518.7" font-family="Iosevka Slab" font-size="14.00" fill="#7638c5">bbox width</text>
<polygon fill="none" stroke="black" points="85,-509 85,-537 162,-537 162,-509 85,-509"/>
<text text-anchor="start" x="90" y="-518.7" font-family="Iosevka Slab" font-size="14.00" fill="#393552">112</text>
<polygon fill="none" stroke="black" points="1,-481 1,-509 85,-509 85,-481 1,-481"/>
<text text-anchor="start" x="5.88" y="-490.7" font-family="Iosevka Slab" font-size="14.00" fill="#7638c5">bbox height</text>
<polygon fill="none" stroke="black" points="85,-481 85,-509 162,-509 162,-481 85,-481"/>
<text text-anchor="start" x="90" y="-490.7" font-family="Iosevka Slab" font-size="14.00" fill="#393552">59</text>
<polygon fill="none" stroke="black" points="0,-480 0,-622 163,-622 163,-480 0,-480"/>
</g>
<!-- branch -->
<g id="node8" class="node">
<title>branch</title>
<polygon fill="black" stroke="none" points="318.25,-579 318.25,-607 479.25,-607 479.25,-579 318.25,-579"/>
<polygon fill="none" stroke="black" points="318.25,-579 318.25,-607 479.25,-607 479.25,-579 318.25,-579"/>
<text text-anchor="start" x="323.25" y="-589.7" font-family="Iosevka Slab" font-weight="bold" font-size="14.00" fill="white">branch</text>
<polygon fill="none" stroke="black" points="318.25,-551 318.25,-579 402.25,-579 402.25,-551 318.25,-551"/>
<text text-anchor="start" x="323.12" y="-560.7" font-family="Iosevka Slab" font-size="14.00" fill="#7638c5">bbox center</text>
<polygon fill="none" stroke="black" points="402.25,-551 402.25,-579 479.25,-579 479.25,-551 402.25,-551"/>
<text text-anchor="start" x="407" y="-560.7" font-family="Iosevka Slab" font-size="14.00" fill="#393552">[461, 289]</text>
<polygon fill="none" stroke="black" points="318.25,-523 318.25,-551 402.25,-551 402.25,-523 318.25,-523"/>
<text text-anchor="start" x="323.25" y="-532.7" font-family="Iosevka Slab" font-size="14.00" fill="#7638c5">bbox width</text>
<polygon fill="none" stroke="black" points="402.25,-523 402.25,-551 479.25,-551 479.25,-523 402.25,-523"/>
<text text-anchor="start" x="407.25" y="-532.7" font-family="Iosevka Slab" font-size="14.00" fill="#393552">138</text>
<polygon fill="none" stroke="black" points="318.25,-495 318.25,-523 402.25,-523 402.25,-495 318.25,-495"/>
<text text-anchor="start" x="323.12" y="-504.7" font-family="Iosevka Slab" font-size="14.00" fill="#7638c5">bbox height</text>
<polygon fill="none" stroke="black" points="402.25,-495 402.25,-523 479.25,-523 479.25,-495 402.25,-495"/>
<text text-anchor="start" x="407.25" y="-504.7" font-family="Iosevka Slab" font-size="14.00" fill="#393552">32</text>
<polygon fill="none" stroke="black" points="317.25,-494 317.25,-608 480.25,-608 480.25,-494 317.25,-494"/>
</g>
<!-- bird&#45;&gt;branch -->
<g id="edge6" class="edge">
<title>bird&#45;&gt;branch</title>
<path fill="none" stroke="black" d="M162.87,-551C206.6,-551 260.87,-551 306.23,-551"/>
<polygon fill="black" stroke="black" points="316.04,-551 306.04,-555.5 312.26,-551 306.04,-551 306.04,-551 306.04,-551 312.26,-551 306.04,-546.5 316.04,-551"/>
<text text-anchor="middle" x="238.38" y="-556.45" font-family="Iosevka Slab" font-size="14.00">sitting on</text>
</g>
<!-- tree #1 -->
<g id="node9" class="node">
<title>tree #1</title>
<polygon fill="black" stroke="none" points="591.75,-607 591.75,-635 752.75,-635 752.75,-607 591.75,-607"/>
<polygon fill="none" stroke="black" points="591.75,-607 591.75,-635 752.75,-635 752.75,-607 591.75,-607"/>
<text text-anchor="start" x="596.75" y="-617.7" font-family="Iosevka Slab" font-weight="bold" font-size="14.00" fill="white">tree #1</text>
<polygon fill="none" stroke="black" points="591.75,-579 591.75,-607 675.75,-607 675.75,-579 591.75,-579"/>
<text text-anchor="start" x="596.75" y="-588.7" font-family="Iosevka Slab" font-size="14.00" fill="#7638c5">color</text>
<polygon fill="none" stroke="black" points="675.75,-579 675.75,-607 752.75,-607 752.75,-579 675.75,-579"/>
<text text-anchor="start" x="680.75" y="-588.7" font-family="Iosevka Slab" font-size="14.00" fill="#393552">green</text>
<polygon fill="none" stroke="black" points="591.75,-551 591.75,-579 675.75,-579 675.75,-551 591.75,-551"/>
<text text-anchor="start" x="596.62" y="-560.7" font-family="Iosevka Slab" font-size="14.00" fill="#7638c5">bbox center</text>
<polygon fill="none" stroke="black" points="675.75,-551 675.75,-579 752.75,-579 752.75,-551 675.75,-551"/>
<text text-anchor="start" x="680.5" y="-560.7" font-family="Iosevka Slab" font-size="14.00" fill="#393552">[623, 302]</text>
<polygon fill="none" stroke="black" points="591.75,-523 591.75,-551 675.75,-551 675.75,-523 591.75,-523"/>
<text text-anchor="start" x="596.75" y="-532.7" font-family="Iosevka Slab" font-size="14.00" fill="#7638c5">bbox width</text>
<polygon fill="none" stroke="black" points="675.75,-523 675.75,-551 752.75,-551 752.75,-523 675.75,-523"/>
<text text-anchor="start" x="680.75" y="-532.7" font-family="Iosevka Slab" font-size="14.00" fill="#393552">319</text>
<polygon fill="none" stroke="black" points="591.75,-495 591.75,-523 675.75,-523 675.75,-495 591.75,-495"/>
<text text-anchor="start" x="596.62" y="-504.7" font-family="Iosevka Slab" font-size="14.00" fill="#7638c5">bbox height</text>
<polygon fill="none" stroke="black" points="675.75,-495 675.75,-523 752.75,-523 752.75,-495 675.75,-495"/>
<text text-anchor="start" x="680.75" y="-504.7" font-family="Iosevka Slab" font-size="14.00" fill="#393552">266</text>
<polygon fill="none" stroke="black" points="590.75,-494 590.75,-636 753.75,-636 753.75,-494 590.75,-494"/>
</g>
<!-- branch&#45;&gt;tree #1 -->
<g id="edge7" class="edge">
<title>branch&#45;&gt;tree #1</title>
<path fill="none" stroke="black" d="M480.2,-555.82C487.49,-556.23 494.75,-556.63 501.75,-557 527.12,-558.34 554.63,-559.69 579.96,-560.89"/>
<polygon fill="black" stroke="black" points="589.84,-561.35 579.64,-565.38 586.06,-561.17 579.85,-560.88 579.85,-560.88 579.85,-560.88 586.06,-561.17 580.06,-556.39 589.84,-561.35"/>
<text text-anchor="middle" x="535.5" y="-566.45" font-family="Iosevka Slab" font-size="14.00">is part of</text>
</g>
<!-- tree #1&#45;&gt;branch -->
<g id="edge8" class="edge">
<title>tree #1&#45;&gt;branch</title>
<path fill="none" stroke="black" d="M591.01,-538.44C583.72,-536.75 576.39,-535.3 569.25,-534.25 544.02,-530.53 516.56,-531.22 491.22,-533.76"/>
<polygon fill="black" stroke="black" points="481.34,-534.87 490.78,-529.29 485.1,-534.45 491.28,-533.76 491.28,-533.76 491.28,-533.76 485.1,-534.45 491.78,-538.23 481.34,-534.87"/>
<text text-anchor="middle" x="535.5" y="-540.45" font-family="Iosevka Slab" font-size="14.00">contains</text>
</g>
<!-- plane -->
<g id="node10" class="node">
<title>plane</title>
<polygon fill="black" stroke="none" points="4.5,-767 4.5,-795 158.5,-795 158.5,-767 4.5,-767"/>
<polygon fill="none" stroke="black" points="4.5,-767 4.5,-795 158.5,-795 158.5,-767 4.5,-767"/>
<text text-anchor="start" x="9.5" y="-777.7" font-family="Iosevka Slab" font-weight="bold" font-size="14.00" fill="white">plane</text>
<polygon fill="none" stroke="black" points="4.5,-739 4.5,-767 88.5,-767 88.5,-739 4.5,-739"/>
<text text-anchor="start" x="9.5" y="-748.7" font-family="Iosevka Slab" font-size="14.00" fill="#7638c5">color</text>
<polygon fill="none" stroke="black" points="88.5,-739 88.5,-767 158.5,-767 158.5,-739 88.5,-739"/>
<text text-anchor="start" x="93.5" y="-748.7" font-family="Iosevka Slab" font-size="14.00" fill="#393552">white</text>
<polygon fill="none" stroke="black" points="4.5,-711 4.5,-739 88.5,-739 88.5,-711 4.5,-711"/>
<text text-anchor="start" x="9.38" y="-720.7" font-family="Iosevka Slab" font-size="14.00" fill="#7638c5">bbox center</text>
<polygon fill="none" stroke="black" points="88.5,-711 88.5,-739 158.5,-739 158.5,-711 88.5,-711"/>
<text text-anchor="start" x="93.12" y="-720.7" font-family="Iosevka Slab" font-size="14.00" fill="#393552">[791, 92]</text>
<polygon fill="none" stroke="black" points="4.5,-683 4.5,-711 88.5,-711 88.5,-683 4.5,-683"/>
<text text-anchor="start" x="9.5" y="-692.7" font-family="Iosevka Slab" font-size="14.00" fill="#7638c5">bbox width</text>
<polygon fill="none" stroke="black" points="88.5,-683 88.5,-711 158.5,-711 158.5,-683 88.5,-683"/>
<text text-anchor="start" x="93.5" y="-692.7" font-family="Iosevka Slab" font-size="14.00" fill="#393552">147</text>
<polygon fill="none" stroke="black" points="4.5,-655 4.5,-683 88.5,-683 88.5,-655 4.5,-655"/>
<text text-anchor="start" x="9.38" y="-664.7" font-family="Iosevka Slab" font-size="14.00" fill="#7638c5">bbox height</text>
<polygon fill="none" stroke="black" points="88.5,-655 88.5,-683 158.5,-683 158.5,-655 88.5,-655"/>
<text text-anchor="start" x="93.5" y="-664.7" font-family="Iosevka Slab" font-size="14.00" fill="#393552">47</text>
<polygon fill="none" stroke="black" points="3.5,-654 3.5,-796 159.5,-796 159.5,-654 3.5,-654"/>
</g>
<!-- sky -->
<g id="node11" class="node">
<title>sky</title>
<polygon fill="black" stroke="none" points="318.25,-767 318.25,-795 479.25,-795 479.25,-767 318.25,-767"/>
<polygon fill="none" stroke="black" points="318.25,-767 318.25,-795 479.25,-795 479.25,-767 318.25,-767"/>
<text text-anchor="start" x="323.25" y="-777.7" font-family="Iosevka Slab" font-weight="bold" font-size="14.00" fill="white">sky</text>
<polygon fill="none" stroke="black" points="318.25,-739 318.25,-767 402.25,-767 402.25,-739 318.25,-739"/>
<text text-anchor="start" x="323.25" y="-748.7" font-family="Iosevka Slab" font-size="14.00" fill="#7638c5">color</text>
<polygon fill="none" stroke="black" points="402.25,-739 402.25,-767 479.25,-767 479.25,-739 402.25,-739"/>
<text text-anchor="start" x="407.25" y="-748.7" font-family="Iosevka Slab" font-size="14.00" fill="#393552">blue</text>
<polygon fill="none" stroke="black" points="318.25,-711 318.25,-739 402.25,-739 402.25,-711 318.25,-711"/>
<text text-anchor="start" x="323.12" y="-720.7" font-family="Iosevka Slab" font-size="14.00" fill="#7638c5">bbox center</text>
<polygon fill="none" stroke="black" points="402.25,-711 402.25,-739 479.25,-739 479.25,-711 402.25,-711"/>
<text text-anchor="start" x="407" y="-720.7" font-family="Iosevka Slab" font-size="14.00" fill="#393552">[706, 209]</text>
<polygon fill="none" stroke="black" points="318.25,-683 318.25,-711 402.25,-711 402.25,-683 318.25,-683"/>
<text text-anchor="start" x="323.25" y="-692.7" font-family="Iosevka Slab" font-size="14.00" fill="#7638c5">bbox width</text>
<polygon fill="none" stroke="black" points="402.25,-683 402.25,-711 479.25,-711 479.25,-683 402.25,-683"/>
<text text-anchor="start" x="407.25" y="-692.7" font-family="Iosevka Slab" font-size="14.00" fill="#393552">1413</text>
<polygon fill="none" stroke="black" points="318.25,-655 318.25,-683 402.25,-683 402.25,-655 318.25,-655"/>
<text text-anchor="start" x="323.12" y="-664.7" font-family="Iosevka Slab" font-size="14.00" fill="#7638c5">bbox height</text>
<polygon fill="none" stroke="black" points="402.25,-655 402.25,-683 479.25,-683 479.25,-655 402.25,-655"/>
<text text-anchor="start" x="407.25" y="-664.7" font-family="Iosevka Slab" font-size="14.00" fill="#393552">419</text>
<polygon fill="none" stroke="black" points="317.25,-654 317.25,-796 480.25,-796 480.25,-654 317.25,-654"/>
</g>
<!-- plane&#45;&gt;sky -->
<!-- ground -->
<g id="node12" class="node">
<title>ground</title>
<polygon fill="black" stroke="none" points="591.75,-767 591.75,-795 752.75,-795 752.75,-767 591.75,-767"/>
<polygon fill="none" stroke="black" points="591.75,-767 591.75,-795 752.75,-795 752.75,-767 591.75,-767"/>
<text text-anchor="start" x="596.75" y="-777.7" font-family="Iosevka Slab" font-weight="bold" font-size="14.00" fill="white">ground</text>
<polygon fill="none" stroke="black" points="591.75,-739 591.75,-767 675.75,-767 675.75,-739 591.75,-739"/>
<text text-anchor="start" x="596.75" y="-748.7" font-family="Iosevka Slab" font-size="14.00" fill="#7638c5">color</text>
<polygon fill="none" stroke="black" points="675.75,-739 675.75,-767 752.75,-767 752.75,-739 675.75,-739"/>
<text text-anchor="start" x="680.75" y="-748.7" font-family="Iosevka Slab" font-size="14.00" fill="#393552">green</text>
<polygon fill="none" stroke="black" points="591.75,-711 591.75,-739 675.75,-739 675.75,-711 591.75,-711"/>
<text text-anchor="start" x="596.62" y="-720.7" font-family="Iosevka Slab" font-size="14.00" fill="#7638c5">bbox center</text>
<polygon fill="none" stroke="black" points="675.75,-711 675.75,-739 752.75,-739 752.75,-711 675.75,-711"/>
<text text-anchor="start" x="680.5" y="-720.7" font-family="Iosevka Slab" font-size="14.00" fill="#393552">[706, 474]</text>
<polygon fill="none" stroke="black" points="591.75,-683 591.75,-711 675.75,-711 675.75,-683 591.75,-683"/>
<text text-anchor="start" x="596.75" y="-692.7" font-family="Iosevka Slab" font-size="14.00" fill="#7638c5">bbox width</text>
<polygon fill="none" stroke="black" points="675.75,-683 675.75,-711 752.75,-711 752.75,-683 675.75,-683"/>
<text text-anchor="start" x="680.75" y="-692.7" font-family="Iosevka Slab" font-size="14.00" fill="#393552">1413</text>
<polygon fill="none" stroke="black" points="591.75,-655 591.75,-683 675.75,-683 675.75,-655 591.75,-655"/>
<text text-anchor="start" x="596.62" y="-664.7" font-family="Iosevka Slab" font-size="14.00" fill="#7638c5">bbox height</text>
<polygon fill="none" stroke="black" points="675.75,-655 675.75,-683 752.75,-683 752.75,-655 675.75,-655"/>
<text text-anchor="start" x="680.75" y="-664.7" font-family="Iosevka Slab" font-size="14.00" fill="#393552">113</text>
<polygon fill="none" stroke="black" points="590.75,-654 590.75,-796 753.75,-796 753.75,-654 590.75,-654"/>
</g>
<!-- sky&#45;&gt;ground -->
</g>
</svg>
